# xmcd
#
# Track frame offsets: 
#        150
#        14227
#        32550
#        45415
#        63804
#        75143
#        85921
#        102053
#        113559
#        123606
#        137499
#        151746
#        164482
#        176772
#        187798
#        201367
#        218683
#        234557
#        246788
#        257065
#
# Disc length: 3689 seconds
#
# Revision: 0
# Processed by: cddbd v1.5.2PL0 Copyright (c) Steve Scherf et al.
# Submitted via: ExactAudioCopy v1.3
#
DISCID=fb0e6714
DTITLE=Johnny Cash and June Carter - Johnny Cash and June Carter . Carry O
DTITLE=n With
DYEAR=1900
DGENRE=Country
TTITLE0=If I Were A Carpenter
TTITLE1=Boy Named Sue
TTITLE2=Ring Of Fire
TTITLE3=Caddilac
TTITLE4=Daddy Sang Bass
TTITLE5=I Fought The Law
TTITLE6=Train Bound City
TTITLE7=Cause I Love You
TTITLE8=I Love You Darling
TTITLE9=Darling Companion
TTITLE10=It Aint Me Babe
TTITLE11=Jackson
TTITLE12=Peace In The Valley
TTITLE13=The Old Rugged Cross
TTITLE14=Where Did We Go Right
TTITLE15=City Of New Orleans
TTITLE16=I Saw The Light
TTITLE17=Long Legged Guitar Picking Man
TTITLE18=Gotta Get Drunk
TTITLE19=Ship Those Niggers Back
EXTD=
EXTT0=
EXTT1=
EXTT2=
EXTT3=
EXTT4=
EXTT5=
EXTT6=
EXTT7=
EXTT8=
EXTT9=
EXTT10=
EXTT11=
EXTT12=
EXTT13=
EXTT14=
EXTT15=
EXTT16=
EXTT17=
EXTT18=
EXTT19=
PLAYORDER=
